<svg xmlns="http://www.w3.org/2000/svg" width="24" height="24" viewBox="0 0 24 24">
    <path fill="none" fill-rule="evenodd" stroke="#B2B2B2" stroke-linecap="round" stroke-linejoin="round" stroke-width="1.4" d="M16.717 8.23l-7.07 7.071a1.715 1.715 0 0 1-1.242.523 1.655 1.655 0 0 1-1.232-.5 1.655 1.655 0 0 1-.5-1.233c.004-.483.178-.897.522-1.241l7.886-7.886a3.43 3.43 0 0 1 2.483-1.045c.967-.009 1.789.325 2.464 1 .676.676 1.009 1.497 1 2.465a3.43 3.43 0 0 1-1.044 2.482l-7.887 7.887c-1.034 1.034-2.275 1.556-3.724 1.566-1.448.016-2.68-.484-3.696-1.5s-1.517-2.25-1.504-3.7c.013-1.446.536-2.686 1.57-3.72l7.072-7.071"/>
</svg>
